HIERARCHY
ROOT Hips
{
	OFFSET 0.00000 0.00000 0.00000
	CHANNELS 6 Xposition Yposition Zposition Zrotation Yrotation Xrotation 
	JOINT LHipJoint
	{
		OFFSET 0 0 0
		CHANNELS 3 Zrotation Yrotation Xrotation
		JOINT LeftHip
		{
			OFFSET 1.62964 -1.40469 0.78906
			CHANNELS 3 Zrotation Yrotation Xrotation
			JOINT LeftKnee
			{
				OFFSET 2.29640 -6.30932 0.00000
				CHANNELS 3 Zrotation Yrotation Xrotation
				JOINT LeftAnkle
				{
					OFFSET 2.29451 -6.30412 0.00000
					CHANNELS 3 Zrotation Yrotation Xrotation
					JOINT LeftToe
					{
						OFFSET 0.03611 -0.09921 1.56387
						CHANNELS 3 Zrotation Yrotation Xrotation
						End Site
						{
							OFFSET 0.00000 -0.00000 0.80291
						}
					}
				}
			}
		}
	}
	JOINT RHipJoint
	{
		OFFSET 0 0 0
		CHANNELS 3 Zrotation Yrotation Xrotation
		JOINT RightHip
		{
			OFFSET -1.73712 -1.40469 0.78906
			CHANNELS 3 Zrotation Yrotation Xrotation
			JOINT RightKnee
			{
				OFFSET -2.28137 -6.26801 0.00000
				CHANNELS 3 Zrotation Yrotation Xrotation
				JOINT RightAnkle
				{
					OFFSET -2.28681 -6.28298 0.00000
					CHANNELS 3 Zrotation Yrotation Xrotation
					JOINT RightToe
					{
						OFFSET -0.15927 -0.43759 1.61103
						CHANNELS 3 Zrotation Yrotation Xrotation
						End Site
						{
							OFFSET -0.00000 -0.00000 0.84630
						}
					}
				}
			}
		}
	}
	JOINT lowerback
	{
		OFFSET 0 0 0
		CHANNELS 3 Zrotation Yrotation Xrotation
		JOINT Chest
		{
			OFFSET -0.04227 2.04338 -0.00225
			CHANNELS 3 Zrotation Yrotation Xrotation
			JOINT Chest2
			{
				OFFSET -0.02148 2.04482 -0.04273
				CHANNELS 3 Zrotation Yrotation Xrotation
				JOINT lowerneck
				{
					OFFSET 0 0 0
					CHANNELS 3 Zrotation Yrotation Xrotation
					JOINT Neck
					{
						OFFSET 0.09180 1.44629 0.19359
						CHANNELS 3 Zrotation Yrotation Xrotation
						JOINT Head
						{
							OFFSET 0.00887 1.40645 0.14750
							CHANNELS 3 Zrotation Yrotation Xrotation
							End Site
							{
								OFFSET -0.00669 1.50671 0.03707
							}
						}
					}
				}
				JOINT LeftCollar
				{
					OFFSET 0 0 0
					CHANNELS 3 Zrotation Yrotation Xrotation
					JOINT LeftShoulder
					{
						OFFSET 2.17674 1.86763 -0.06520
CHANNELS 3 Zrotation Xrotation Yrotation
						JOINT LeftElbow
						{
OFFSET 0 -4.657760 0.000000
CHANNELS 3 Zrotation Xrotation Yrotation
							JOINT LeftWrist
							{
OFFSET 0 -3.555390 0.000000
CHANNELS 3 Zrotation Xrotation Yrotation
								JOINT lhand
								{
									OFFSET 0 0 0
CHANNELS 3 Zrotation Xrotation Yrotation
									JOINT LFingers
									{
OFFSET 0 -0.707260 0.000000
CHANNELS 3 Zrotation Xrotation Yrotation
										End Site
										{
OFFSET 0 -0.570220 0.000000
										}
									}
								}
								JOINT LThumb
								{
OFFSET 0 0.000000 0.000000
CHANNELS 3 Zrotation Xrotation Yrotation
									End Site
									{
OFFSET 0 -0.578920 0.578920
									}
								}
							}
						}
					}
				}
				JOINT RightCollar
				{
					OFFSET 0 0 0
					CHANNELS 3 Zrotation Yrotation Xrotation
					JOINT RightShoulder
					{
						OFFSET -2.80694 1.55459 -0.32496
CHANNELS 3 Zrotation Xrotation Yrotation
						JOINT RightElbow
						{
OFFSET 0 -4.719250 -0.000000
CHANNELS 3 Zrotation Xrotation Yrotation
							JOINT RightWrist
							{
OFFSET 0 -3.569900 0.000000
CHANNELS 3 Zrotation Xrotation Yrotation
								JOINT rhand
								{
									OFFSET 0 0 0
CHANNELS 3 Zrotation Xrotation Yrotation
									JOINT RFingers
									{
OFFSET 0 -0.507760 0.000000
CHANNELS 3 Zrotation Xrotation Yrotation
										End Site
										{
OFFSET 0 -0.409370 0.000000
										}
									}
								}
								JOINT RThumb
								{
OFFSET 0 0.000000 0.000000
CHANNELS 3 Zrotation Xrotation Yrotation
									End Site
									{
OFFSET 0 -0.415620 0.415620
									}
								}
							}
						}
					}
				}
			}
		}
	}
}
MOTION
Frames: 4
Frame Time: 0.008333333333333333
9.106391 12.367025 31.675134 180.826240 0.655923 -119.593077 0.000000 0.000000 0.000000 6.901264 -19.860571 -107.972075 20.005333 19.999150 90.015518 3.240618 -11.664952 -32.536971 2.604734 -10.025788 -29.060322 0.000000 0.000000 0.000000 -6.230408 27.290318 -104.377575 -18.090728 -19.911829 84.409632 -6.949892 3.474195 -49.730154 -3.647175 11.674768 -34.591847 -3.570335 -0.604465 -0.793338 -0.498487 -0.756245 -0.238491 1.482065 -0.370026 0.240228 2.254842 -7.566764 -2.590196 5.421377 -7.518299 -23.084233 1.599872 -3.211695 -6.484345 0.000000 0.000000 0.000000 8.313903 22.699028 -29.324462 12.372842 -20.361231 2.230421 30.293922 -6.032076 14.845803 0.000000 0.000000 0.000000 -7.125000 0.000000 0.000000 1.833919 12.920663 1.377929 0.000000 0.000000 0.000000 1.349443 17.778821 8.535177 -9.602355 -16.115093 -1.362496 -12.546711 17.063067 50.484521 0.000000 0.000000 0.000000 7.125000 0.000000 0.000000 57.391826 74.995673 -43.574995
9.109282 12.300333 31.600871 180.803117 0.646621 -119.733159 0.000000 0.000000 0.000000 6.938685 -19.957732 -107.980841 20.368173 19.995948 91.076574 3.257638 -12.012445 -32.631603 2.546182 -9.921167 -28.721998 0.000000 0.000000 0.000000 -6.122900 27.358012 -104.269941 -18.372910 -19.936048 85.237759 -6.990373 3.499148 -49.879961 -3.720824 11.779335 -34.955819 -3.693491 -0.615982 -0.480093 -0.472879 -0.787494 -0.375027 1.581305 -0.378494 -0.071799 2.193776 -7.362724 -2.473677 5.598999 -7.170741 -23.232892 1.657605 -3.046533 -6.548260 0.000000 0.000000 0.000000 8.225050 20.497994 -29.035078 12.149010 -20.027404 2.153254 30.809788 -5.379096 14.660770 0.000000 0.000000 0.000000 -7.125000 0.000000 0.000000 2.199635 13.047816 1.647712 0.000000 0.000000 0.000000 0.939330 15.752777 10.710045 -9.646473 -16.184628 -1.374728 -13.238786 16.440059 50.206283 0.000000 0.000000 0.000000 7.125000 0.000000 0.000000 55.972763 75.136507 -42.496695
9.111426 12.241181 31.525739 180.852886 0.668514 -119.768063 0.000000 0.000000 0.000000 7.016468 -19.976315 -107.996061 20.723213 19.986704 92.115017 3.288538 -12.397943 -32.800420 2.494588 -9.827989 -28.421514 0.000000 0.000000 0.000000 -6.027379 27.494434 -104.271566 -18.620508 -19.954002 85.963582 -7.034419 3.771085 -49.999714 -3.802071 11.891314 -35.349922 -3.791879 -0.612167 -0.402120 -0.433712 -0.787617 -0.453530 1.677898 -0.375085 -0.194241 2.065723 -7.074595 -2.758017 5.820160 -6.684887 -23.292383 1.715639 -2.793454 -6.511697 0.000000 0.000000 0.000000 8.039951 17.929570 -28.831629 11.877607 -19.620499 2.061278 31.788118 -5.464947 14.596976 0.000000 0.000000 0.000000 -7.125000 0.000000 0.000000 2.860496 12.960642 2.149478 0.000000 0.000000 0.000000 0.489021 13.232178 12.707208 -9.544065 -16.023062 -1.346513 -13.101257 15.666536 50.354389 0.000000 0.000000 0.000000 7.125000 0.000000 0.000000 56.572638 75.151878 -43.026117
9.112738 12.189997 31.452900 180.913703 0.745571 -119.617145 0.000000 0.000000 0.000000 7.119010 -19.966724 -108.101451 21.056322 19.972584 93.089818 3.324505 -12.809685 -32.998295 2.483236 -9.807329 -28.355008 0.000000 0.000000 0.000000 -6.076509 27.649230 -104.500958 -18.960594 -19.972859 86.959554 -7.136229 3.760849 -50.386015 -4.012085 12.174527 -36.354994 -3.889106 -0.582120 -0.536971 -0.456097 -0.742059 -0.598712 1.709057 -0.347670 -0.269221 2.307647 -7.194274 -2.798642 5.694669 -6.842273 -23.412823 1.644114 -2.870637 -6.558392 0.000000 0.000000 0.000000 7.981138 15.217728 -28.673018 11.604339 -19.208394 1.970376 32.734516 -5.428754 14.544210 0.000000 0.000000 0.000000 -7.125000 0.000000 0.000000 3.498003 12.862162 2.636885 0.000000 0.000000 0.000000 0.227774 10.399996 13.984499 -9.262518 -15.577404 -1.270092 -12.906595 15.872143 50.911854 0.000000 0.000000 0.000000 7.125000 0.000000 0.000000 58.666885 75.317121 -45.012453
